<svg xmlns="http://www.w3.org/2000/svg" viewBox="0 0 100 100">
  <path fill="#d36ac2" d="M50.4 1c14.7 2.5 27.1 13 31.2 20.5 2.3 4.2 4 8.2 6.3 13.3 0 .3-.2-.3-.9-.8-2.3-2-5.2-5.5-5.3-5.6-1-1.2-2.9-3.5-4.8-3.8-.7-.7-1.5-1.3-2.2-2-.2-.2-.4.1-.2.2 2.3 1.7 10.7 15.3 4.9 26.1-.9 1.7-2.9 5.1-4.1 6.4-.9-.1 1.3-.5.1-11.7-.4-3.8-3.3-8.5-3.6-8.6-.3-.8-.3-.9-.4-1.1-.1-.1-.3 0-.2.1 2.1 6.3 3 11.6.9 18-.4.2.7-1.5-.3-4.5-1.1-3.5-.3-7.8-8.9-17.6-.7-.8-1.2-1.4-2.2-2.2L59 25.4c-.1-.1-.3.1-.2.2 1.7 2.6 3.5 5.1 4.7 8-.6-.7 0-.3-1.9-3.5h-.1c2.2 4 4.3 13.8 4.6 14.3.4 4.2.2.9-3.4-5.5C55.4 16 41.9 18.5 36.4 11.5c-1.1-1.4-2.5-4.4-3.8-5.1C34.8-.2 43.4-.2 50.4 1m12.7 34.7s-.1 0 0 0c-.1 0 0 0 0 0m-31-25.9c.1.9.6 2.8 1 3.7.1 1.1.5 2 1.2 3.4.3.6-.1.8 2.5 3.3.3.3.5.5.8.6.4 4.8-1.9 10.6-5 14.5 0-.1.3-3-.1-6.1 0-.3-1.5-6.1-1.6-6.1s-.1.2-.2.1c-.3-1-.7 1.6-.2 4.2.2 3.2-1.6 2.4-3.2 6.4-2.5 6.5-3.9 10.5.4 22.2 1.7 4.5 3.6 8 3.9 8.4.8 1.2.7 1.9 1.3 3.1.2.4.2.6 0 .9-2.5-2.8-10.6-16.3-11.9-24.6-1.8-11.9-3.5-22.7 5.4-30.7 4.8-4.3 5.5-2.9 5.3-3.6l.2-.1c.2.2.2.3.2.4m22 19.3c-.9-1.8-2.2-3.5-3.7-4.9-.5-.2-1.1-.6-1.6-.9-.2-.1 0 .2 1.2 1.8 3.4 4.6 4 7.6 7.1 12.9.6 1.1-1.2-6.8-3-8.9"/>
  <path fill="#dd8dcf" d="M45.8.4c1.5-.1 7.8.9 11.4 2.1 11.3 3.9 21.2 13.1 24.3 18.8 1.6 2.8 3 5.9 4.1 8.5-4.9-7.9-6.2-11.3-15.1-18.5-2.6-2.1-3.3-3.1-9.3-6.3C57.3 2.9 47.1.4 45.8.4m30.8 24.7c4.5 7.2 6.9 16.2 2.9 23.6-.8 1.5-1.6 2.9-2.6 4.3-.6.3 2.3-6.2 2.3-10.5 0-9.9-2.3-13.6-8-21.7-.1-.1.1-.3.2-.2 2.1 2.2 2.5 1.5 4.3 3.3 0 0 .1 0 .1.1s.1.1.1 0c.1.2.6 1 .7 1.1m-41 5.3c.8-1.7 1.4-3.5 1.7-5.3-.4-3.8-.7-4.3-.7-4.1-.1 1.5-.2 3.1-.5 4.6-.5 2.6-2.6 7.1-2.1 6.6zm27.5 5.3s-.1 0 0 0c-.9-2.3-3.7-7.1-6.5-12.4-.4-.8 5 5.5 6.5 12.4m8.5-1.6c.1-.6-1.5-4.6-3.1-7.2-.8-1.3-2.1-2.6-3.2-3.6-.2-.2-.2-.1 2.5 4.6 4.9 8.5 4.3 16.3 4.7 15.8.4-1.9.2-2.3.4-3.5-.4-2.1-1-4.1-1.7-6.1 0-.2.2-.5.4 0"/>
  <path fill="#9b559a" d="M35.2 9.7c4.5 7.5 13.4 6.8 19.5 14.4 3.6 4.5 6.3 9.3 8.1 14.8-.2-.3-3.3-5.2-7.5-9.1-.7-.6-1.9-3.9-4.9-6.3-.2-.2-.3.3-.2.4l.3.3c-.9-.3-1.9-1.3-1.7-.9.4.6 4.9 6.5 6.1 10.9-5.7-8.3-8-9.9-14.4-13.6s-7-8.7-7.2-8c0 .1 1.2 3.6 4.7 6.7-.2-.1-.4-.2-.6-.5 0-.1-.2 0-.1.1.1.3.1.6.1.9h.1l.1 1c-.3-.2-.5-.4-.8-.6-2.6-2.4-2.2-2.7-2.5-3.3-.7-1.4-1.2-2.3-1.2-3.4 1.4 3.5-1.4-3.9-.5-7 1.1.6 2 2.2 2.6 3.2m-2.6 25.6c-1.8 2.4-.7 1.3-.6-1.4.1-4.5-1.3-4.7-1.3-10.7.2.1.1-.1.2-.1s.1.1.3.9c1.5 5.3 1.6 6.5 1.5 10.8 0 .2-.1.4-.1.5m44.8-10.7c-.1 0-.2-.1-.5-.1 1.5 1.4 1.5 1.6 1.6 1.5h.1c.3-.2 1.1 2 4.5 5.1 6.2 5.9 5.2 4.7 4.7 3.6 0 .3-.2-.3-.9-.8-2.3-2-5.2-5.5-5.3-5.6-1-1.4-2.1-2.7-4.2-3.7m-46.9 2.8c.3 1.2.5 1.6.4 1.7-.3.4-3.3 6.5-3.9 8.9 0 .4-1.8 8 .1 13.4 1.8 5.1 3.5 9.4 4.7 12 3.2 7.4 4.4 9 4 8.5-1-1.1-1.9-2.3-2.7-3.5.4-.6-.2-.9-.4-1.8-.5-1.8-.8-1.8-1.5-3.2-3.8-8-6-12.8-6.1-20.8 0-3.8 2.8-10.5 3.9-11.5.4-.4 1.5-1.5 1.6-2.3-.1-.2-.1-.7-.1-1.4m30.2.3c6.6 10.5 10.1 16.1 9.4 28.8-.1 1 1.6-3.4 2-4.4-.4.2.7-1.5-.3-4.5-1.3-4.3 0-5.7-6.3-14.4-.7-1.2-3.2-4.3-4.8-5.5m-6.6 1.4c.5.5 1.2 2.2 1.5 2.9-.6-.5-.4-.7-.5-.8-.4-.6-.7-1.3-1-2.1m9.4 4.6c1.3 3.2 2.3 6.9 2.6 10.8-.3-.6-2.4-10.2-4.6-14.3-.2-.4 1 1.5 1.4 2.5.2.4.4.7.6 1m8.4 1.2c.3.2 3.2 4.9 3.6 8.6 1.1 10.9-.9 11.7-.1 11.7-2.5 3.1-2.6 3.4-2.5 3.1 1.8-3.9.8-10.9.8-11 .4-4.2-.3-8.4-1.8-12.4"/>
  <path fill="#d36ac2" d="M76.3 71.1c-1.9-1.5-3.8-2.9-5.9-4L67.7 69c2.8 1.6 13 7.7 9.9 8.4-1.6.4-3 1-4.5 1.5-.3.1-.7.2-1 .3-10.7 3.4-13.2 7.1-18.8 13.8-1.3 1.6-2.2 3.3-2.5 4.2 0 1.6-.6 1.4.8 1.2.3-.7.5-1.2.7-1.5 1.5-2.1 1.4-3.4 4-5.7.2-.2 1.1-.9 1.8-1.8 5.3-6.2 15.9-10.2 21.7-11 1.4-.2 2.9-.3 4.3-.3.5 0-1.8-2.2-2.3-2.7v.1c-.1.1.3.3 1.1 1.6-.1 0-.2-.4-1.3-1.2-6-4.5-7.5-6.1-7.1-5.9 1.9 1.2 1.5 1.2 1.8 1.1m-56.2 5.3c-.4.2-.8.5-1.1.8-.2.2-.2.4.1.5.5.1 1.1.1 1.6.1 2.4-.1 7.7 1.3 9.8 2.5 5.8 3.1 5.1 2.5 6.6 3.6C47 91 46.1 93 49 97.8c0 .2 0 .3.1.5-.3.3.1.5-.2.6-2.9-3.2-2-6.7-14.7-15.7-1.5-1.1-3.6-2-5-2.4s-1.2-1-7-2c-4.4-.7-6.2.1-6.4-.1 0-.2 2.2-2.6 3.4-3.6 2.1-1.7 1.7-1.7 3.4-3.4 1.1.2.1-.5 3 .4-5.4 3.9-4.7 3.8-5.5 4.3m64.1.9c-.3-.4-.6-.7-1-1 1 1 1.1 1.3 1.3 1.6-.2-.3-.2-.5-.3-.6m-3.3 2.4c2.7 1.5 3.2 1.7 3.3 1.7.5.4 1.7.5 3.8 1.8-.2 0 0 0-6-2.6-.4-.2-.7 0-.6.1 3.6 2.5 3.9 3.1 4.7 3.4.5.2.9.4 1.3.7-7 5.2-9.4 9.2-11.3 14.3-.1.3-.2.5-.2.8H55.5c5-7.5 9.4-11.3 9.7-11.5 4.3-4.6 10.5-7.5 15.7-8.7m-64 2.9c-1 .2-2.8.6-3.7.9-.5.2 7.8 12.8 10.9 15.7.3.3.3.3.6.7h20.1c-3.7-5.9-8.1-8.6-14.2-12.2-2-1.2-4.1-1.9-6.4-2.7-1.3-.4-2.6-1-3.8-1.5-1.6-.7-1.8-.4-3.5-.9m-4.3 3.1c.1.5.2 1 .6 1.3 3.2 7.6 6.5 10 8.5 13h-1.2c-4.1-5.6-5.4-6.7-8.4-12-.6-1-1.2-2.1-1.6-3.1 0-.1 0-.1 1.5-.8h.1zm77.4.4c-.4-.1-.7-.3-1.1-.5-2.6 1.7-8.3 6.5-10.5 11.5-.4.9-.8 1.9-1.1 2.8h1.5v-.1C80 95.4 86.6 89.2 90 86.1"/>
  <path fill="#ffca2c" d="M43.8 25.3c-5.2-3.2-4.7-2.4-6-4.1.4 3.7-.9 9.3-5.5 15.1.1.1.1.3 0 .3-.1.1-1.7 1.9-1.8 1.9s-.4-.1-.4-.2c0-.8 0-1.5.1-2.3 0-.2.1-2.7-.2-2.1-1.4 3-2.1 4.3-2.2 5.6 0 .1-.6 4.8-.3 6.9 1.8-2.4 1.7-1.9 2.1-2.9.8-1.8 2.1-2.7 2.7-3.9 1.8-3.1 9.9-12.1 11.5-14.3m14.6 15.2c.6-.8 1.6-1.3 2.5-1.6-2-3-2.7-4.3-4.3-5.4 1 2.9 1.5 6.7.1 4.8 0 .8-.6.8-.6 1.1 0 .1 0 .2-.2.2-.3.1-.8-2-2.7-4.7-.3.5-5.1 7.7-5 7.7 4.4-1.1 9.2-3.2 5.5.3-4.3 4.1-17.3 18.6-18.6 20.3 2.6 2.5 6.4 5.2 10.1 7.7.3.2.6.4.8.6 5.2 1.8 12.9-1.5 17.5-4.7.3-.4.5-.8.8-1.1 3.9-5 4.1-11.2 2.5-17.3-.2.1-.3 0-.4-.2l-.1.1c-.2.9-.1.9-.4.1-3.4 1-5.8.7-8.1-.3-.5-.2-2.8-1.3-2.5-1.8.1-.1.1-.2.1-.4-.4 0-.2-.2.4-1.6.7-1.3 1.6-2.6 2.6-3.8m-5.9 15.8c.6-.4.7-.8.8-1.4.1-.4.7 1.1-1.1 2-4.5 2.2-6.2-2.9-4.9-1.4 1 1.1 1.9 1.8 3.5 1.5.6-.2 1.2-.4 1.7-.7m-9 7.3c-1.4-1.4-.8-.7 3-1.6 1-.3 1.7-.5 2.7-.1 1.1.4 2.2-.1 3.2-.1.3 0 .7.1 1 .2.6.1 1.1.2 1.7.2.8.1 1.1.5 1.6.6-4.4 3.7-5 3.1-7 3.1-.9.1-1.8.1-2.7-.1-1-.2-3.4-1.3-3.5-2.2M30 54.9c-.9-2.1-1-2.8-1.6-4.6 4.3-.4 4.1-.4 4-.3-.9 1.6-1.6 3.3-2.4 4.9m19.2 40.3c0 .1.1.2.2.4.3-3.1 5.1-11.3 6.6-13.9.9-1.6-.4-6.9-.5-6.9-1.2.3-2.7 1.8-7.1.6-1.7-.5-3.2-1-4.5-2.1-.2.2 0 3-3.1 6 2.2 3.7 6.9 11.9 8.4 15.9"/>
  <path fill="#46cae4" d="m44 25.5 1.2.8c-.1.1-9.6 12-9.7 12.1-2.5 1.1-2.9 1.7-2.7 1.5C36.5 34.4 42 28.5 44 25.5m-9.3 37.3-1.2-1.3c3.8-4.2 14-14.6 15.8-16.3 3.6-3.3 1.8-3.2 5.2-3.8h.1c.3 0-.7.7-3.7 3.8-9.7 10-13.7 15.3-15.6 17q-.3.15-.6.6M29 45.4l-1.3 1.8c.2.7.3 1.3.4 1.9.8-.8 1.5-1.6 2.2-2.5-1-.6-.9-.8-1.3-1.2m38.3 23.9c1 .5 10.5 6.4 10.5 7.5-.1.2-.5 0-3.4 1.1-1 .4-2 .7-2.9 1-4.9 1.6-8.6 3.4-12.6 7 .4-.7.2 0 2-3.5 1.7-3.1 1.8-4.2 3.6-7.4.9-1.8.4-3.1 2.8-5.7m-41.2 2.9c-2.5 2.2-1.7 1.1-4.7 3.8-.7.6-2.2 1.4-1.8 1.4 4.4 0 8.2.9 11.9 2.9 5.9 3.2 4.3 1.7 12.1 8.3-7.7-11-6.6-12.6-14.7-15.5-1.5-.5-1.5-.5-2.8-.9M24 100h-1.8c-2.6-3.9-2.3-2.3-5.6-7.4-3.1-4.9-4.5-8.6-4.3-8.6l.8-.3.8 1.9c.5 1.2 1.8 3 3.4 5.6 2.2 3.7 3.9 5.2 6.7 8.8m52.2 0h.8c1.9-8 9.9-12.9 13-15.5.1-.1 0-.1-.7-.5-.2-.1-5.8 4.4-7.4 6.2-3.3 3.7-4.3 5.9-5.7 9.8"/>
  <path fill="#2a2b2a" d="M83.3 23.8c1.4 2.9 1.7 3.6 2.9 6.1 1.8 3.8.9 2 2.7 5.8.1.1.1.3 0 .4-.4.3-1.3-.5-2.2-1.3-.6-.7-2.6-1.7-8.4-8.6 0-.1-1.7-1.9-1.4-1.3 7.5 13.1 7.5 21-5.1 35.4-.2.2-.5-.1-.4-.2 1.9-3 2.1-5.7 2-5.7-.1.1-.9 3.2-3.7 7.1-1.3 1.7-3 3.2-3 3.4.1.2 1.6.8 1.8.8.7.2 2.2 1.1 3.9 2.2.2.1 0 .5 1.9 1.6 3.8 2.4 2.8 2.6 1.5-1-.1-.3-.2-.6-.4-.9-.7-1.8-.7-3.6.3-3.1 1.2.7 1.8 1.1 3 1.8s2.8 1.4 4.2 1.6c-5.3-6.9-6.7-13-6.4-13.1s.2 3.7 4.9 10.5c.2.4.4.6.6.8 0 0 .1.1.1.2.1.1.2.3.3.4 1 1.2.8 1.2.8 1.5-.2.1-.5.1-.7.1-.6-.2-1.2-.4-1.7-.5-2-.6-5.8-3.7-5.5-2.8-.6.7 2.2 6.5 2.6 6.9 2.5 1.9 4.8 3.7 6.5 6 0 0 .1.3.1.4 0 .2-.1.3-.4.4-1.1.1-1.9-.1-3.9.2l-.6-.4c3.7-.5 4.6-.1 4.4-.4-1.3-2.2-5.9-5.6-7.8-7-5.5-4.3-8.7-5.5-9.7-6-.2-.1-.3.4-2.7 2.1-4.5 3-5.7 2.9-5.6 3.2.2 2.4 0 3.8 1.1 5.9 1.2 2.3 2.1 2.3 1.4 2.6-.6-.4-1-.9-1.3-1.4-.6-1.1-1.1-2-1.3-3.1-.5-2.1.1-4.1-.2-4.1-4.9 1.9-5.8 2.5-10.2 2-1.1-.1-2.1-.4-3.1-.8-1.9-.8-6.3-3.3-9.1-5.3l.5-.2c4.8 2.7 11.4 8.7 18.9 5.1 6.7-2.1 10.2-5.5 10.3-5.5.4-.4.2.2 3.1-3.1 3.1-3.5 5.3-9.4 5.3-10 .1-1.7-.1-4.2-.2-3.8-.9 4.6-3.2 9.3-3.7 9.2-.7-.2.9-2.8-.9-12.9 0-.2 0 .5-2.1 2.2v.1c.1.9.1 1.1 0 1.3-.5.3-.4-1-.7-.9-3.2 1.8-7-.2-7.9-2.7-1.1-3 .1-4-2.8 1.1-.2 0-.2 0-.2-.1.8-2.2 1.9-3.9 3.1-5.3 1-1.2 3.3-1.9 3.4-1.9 1 .3-6.9-9.1-6.4-8.1.9 1.8 1.7 4.3 2.1 6.3.3 2-.3 2.1-.5 1.8-.4-.6 0 0-2.9-4.9-.1-.1-5.9 8.7-5.8 8.7 11.2-2.9 8.4-4.3-8.6 15.4-4.2 4.9-3.5 3.9-4.3 4.8 0-.1-.1-.1-.2 0-.3.4 0 0-1.1 1.2-.2.2-.3 0-.3-.1.1-.2.2-.3.2-.3h-.1c1.8-2 1.1-.7 7.2-7.9 3.2-3.8 8.6-9.3 9.8-10.5 2.8-2.8 3.8-3.6 3.7-3.8h-.1c-3.4.6-1.6.5-5.2 3.8-4.4 4-16.1 16.5-16.9 17.2v.1l.6.8c-.2 0-.3 0-.4.1-.9-1.1-1.8-3-.3.2-.3.3-.1.5.2.4l1.2 2.9q0 .6.3.6c.6 1.3.9 1.7 2.8 5.3.2.3-.2.6-.5.4-1.3-.8-3.9-5-4-5 0 0-2.7 2-3 2.1-3.5 2-2.6 2-5.6 4-.8.5-1.5 1.2-2.3 1.9-.2.2-.8.6-1.8 1.3v.1h.1c4.2-.1 8.5 1.1 11.9 2.9 5.1 2.8 4.3 1.9 9.9 6.3 2.9 2.3 4.8 4.6 6.4 8 1.4 3 2.4 5 .7 2.3-1.9-3.1-1.6-6-11.4-13.1-.6-.4-1-.7-1.3-.8-1.8-.9-3.5-1.8-5.3-2.8-2.5-1.3-7.9-2.5-9.3-2.5h-.6c-.5 0-1.1 0-1.6-.1-.3-.1-.3-.3-.1-.5.3-.3.7-.5 1.1-.8.6-.4.8-.9 3.2-2.5 3-2.1 2.3-2.2 4.9-3.6 2.3-1.3 1.8-1.3 3.7-2.6v-.1c-1.3-1.8-1.6-2.3-1.7-2.3-.5.3-.9.7-1.4 1.1-9.1 7.6-6.5 6.1-9.6 8.7-.6.5-1.1.9-1.6 1.5-1.5 1.7-1.6 1.7-1.8 2.1q3.15-.45 6.3 0c1.9.3 4.3.8 6 1.6.3.2.6.3 1 .4 1.7.5 3.6 1.3 5 2.4C46 91.8 45.2 94.8 48.7 99.1h-.1c-3.9-4-2.3-6.8-15.2-15.8-.6-.4-1.2-.8-1.8-1-4.2-1.8-3-1.6-5.7-1.3-.2 0-.3 0-.6.1-.6.1-1.3.1-2 .2-2.3.4-4.5.8-6.8 1.4-.8.2-1.7.4-2.5.6l-1.2.3v.1c.3.6.7 1.3 1 1.9.6 1.2 1.5 2.4 2.3 3.7.1.1 4.1 6.8 7.6 10 .1.1.2.2.3.4.1.1.2.2.2.4H24c-4.6-6-2.3-1.9-8.8-12.2-.7-1-1.1-1.8-1.3-2.3-.2-.6-.5-1.3-.8-1.9H13l-.8.3.6 1.5c5.4 11.3 6.3 9.8 9.4 14.5h-.5c-2.1-3.2-5.2-5.3-8.5-13l-.6-1.3-.5-1.6H12l-1.5.7s-.1.1 0 .1c.4.9.9 1.8 1.3 2.7 2.8 5 4.3 6.8 5.8 8.8.9 1.2 1.9 2.4 2.8 3.7H8c0-.3.9-1.7 1-2.1.1 0 1-1.4 1.1-1.7 0 0 .1 0 .1-.1 1.2-1.8 2.5-4.4 3.5-4.7.5.2-1.3-2.1-2.5-4.7-.3-.6-.7-1.3-.9-1.9 0-.1-.1-.3-.1-.4v-.1l.1-.1c.8-.3 3.8-2.4 16.9-3.9.7.1-4.1-2-10.6-1.4-.1 0-.2 0-.3.1-.5.1-1.2.2-.9-.6.1-.2.2-.4.3-.5.3-.3.5-.6.8-.9.7-.7 1.3-1.4 2-2 .6-.3.7-.7.9-.7.5-.3 1.4-1.3 1.7-1.7v-.1c4.4-4.5-.1-.1 6.1-5.5 2.6-2.2 2.7-2.1 2.7-2.2-4.6-7.1-3.1-5.6-6-11.2-1.5-2.9-2.6-5.3-3.5-11.6-1.6-11.2-2.8-22.3 6.3-29.7.1 0 .2-.1.3-.2 1.3-1.1 2.6-2.1 4.7-2.7l.2.1c.2.8-14.4 3.6-11.7 26.7.9 8 1.3 11.6 4.3 17.5 1.6 3.1 3.4 7.6 6.5 11.9 7.8 10.7 4.6 6.7.8-2.1-6.6-15-6-16.8-4.8-24.9.4-2.9 4-9.4 4-9.5-1.1-4.5-.4-6.7-.2-5.8 0 5.9 1.3 6.4 1.3 10.7 0 2.2-.6 3-.3 2.6 4-5.1 6.5-10.2 5.9-16.7.4-.6 2 7.5-5.1 16.5-.4.5-1.4 1.8-1.6 1.3-.4-.7 1.6-1.3.2-8-.2.3-.4.6-.4.9-4.5 8.9-3.4 10.9-4 14.3-.1.6.1.8.2 2.7 0 .1 0 0 .7-1 1.8-2.4 1.7-1.9 2.1-2.9.8-1.8 2.1-2.7 2.7-3.9.6-1.1 1.5-2.1 1.9-2.7 1.9-2.6 5.9-7.4 6.1-7.6 4.4-4.7 3.7-4.9 4.3-5.4l-.5.9c-.4.5-.6 1.3-2.8 3.8-2.9 3.3-6 7.3-7.5 9.4-.2.3-1.3 1.8-1.1 1.6 1.5-1.1 2.8-1.3 3.1-1.8 1-1.6 10.2-12.6 10.3-13 .6.1-9.9 12.8-9.8 13.1 2-.4 3.9.5 5.3 1.8.3.3.6.5.9.8 1.3 1.5 3.3 5.3 3 5.4h-.1c-.7-.3-1.2-2.4-2.9-4.7-.1-.1-.1-.1-.1 0 0 9.5-13.4 7.2-10.1-.9.3-.8-2.5 3.4-4.8 6.5-.9 1.5-.8.4-.5 2.6.1.3 2.6-2.6 3.1-3.2 0-.1.2-.1.1.1 0 .1 0 .1.1.1-1.4 2.9-3.7 3.1-2 3 5.1 0 5.4-2.3 2.2 4.5-.9 1.8-1 2.3-1.3 2.2-.1 0-.1-.1-.1-.2 2.9-6.7 3.2-6.5 3-6.5-4.6.4-3.6.4-4.9.4-.4 0 .1.3.3 1.4.3 1.5 3.6 11 4.4 10.1l.9-1h.1c.8-.2 3.8-4.4 7.9-7.9.6-.6 1.6-1.8 3.3-3.5 7.5-7.4 4.9-4.6 7.6-7.4.2-.2.1 0-3.9 1-.3.1-.5-.2-.3-.5s.3-.5.5-.8c1.8-2.6-.2-.1 4.9-7.1.5-.6.8-.9.7-1-2.9-4.1-3.1-4.2-4.4-5.7-6.7-7.5-12.5-5.9-16.3-15.2l.1.1c4 9.2 10.8 7.3 18.2 16.9 4.7 6.1 5.6 9 5.6 8.3-.2-3.4-2.3-8-3-8.9-.9-1.8-2.2-3.5-3.7-4.9-.4-.5-.4-.4-.3-.7.2-.7 3.5 3.6 4.7 5.8.4.7 1 .8 4.7 5.2 5.8 7 6.2 11.7 6.7 11.7.2 0-.3-4.5-.9-6.8-2-7.3-2.7-8.2-6.5-13.9v-.2c.3-.3 3.3 4.8 3.5 4.8h.1c2.4 5.7 7.4 8.6 7.7 24 0 2.1-.2 2.8.1 2.3 4.4-8.2 3.4-15.2 1-22.5-.1-.2.1-.4.3 0 1.4 3.9 2.6 7.6 2.1 13.2 0 .1 1.1 7-.8 11 0 .1 3.6-4 6.6-9.5 4-7.5 1.6-16.4-2.9-23.6-.6-.9-.9-1.7-2-2.5-.1-.1-.1-.3.1-.3.2.1 1.9 1.6 2.3 2 1.5 1.4 1.5 1.6 1.6 1.5h.3c2.6 3.8 4.7 5.6 9.4 9.7.2.2.1 0-.3-.9-4.1-8.9-5.6-13.5-10.5-18.7-18.5-19.4-44.6-19-45-8.2-.1 3.1 1.3 6.6 1.1 6.6s-1.1-3.1-1.2-3.7C28.6-8.4 71.2-.8 83.3 23.8m-19 10.7c.7 2.1.5 1.3 1.1 3.7 0 .1.4-.1 1.2.3.2.1-2.6-4.8-2.6-4.9zm-23.7 6.8c0 .2.1 1.9 0 1.5-.8.1-1.1 1.1-.3 1.5-1.9 3.5-8.1 2.9-6.3-3.6.4-1.3.8-1.5.5-1.4-.5.2-1.6 1-1.6 1.2-.2.7-.4 1.3-.5 2-.7 3.7 4.2 6.1 7 4.4 2.1-1.2 2.9-3.3 2.8-5.7 0-.4-.3-.6-.6-.8-.4-.2-.7-.6-1.7-1.2 0 0-.1 0 0 0 .3.7.6 1.3.7 2.1M66 47.1c.1-.1-.4-1.3-.5-1.3-3.5 1.4-5.6-.5-5.7-3.6-.1-1.6.6-2.4.3-2.2-1.1.7-2 1.6-2 1.7-.2.5.3 2.1.5 2.7.1.3.2.4.5 1 1.3 2.6 5.4 3.2 6.9 1.7m-28.6-5.8c-.5-.7-1.5-.8-2-.1s-.1 1.7.8 1.9c.5.2 1.9-.6 1.2-1.8m24.7-.2c-1.2.3-1 2-.4 2.2 1.4.5 2.7-.6.8-2.1-.1-.2-.3-.2-.4-.1m5.8 1.3c-1.3-.5-1.7 1.3-.5 1.5-.3.7-.7.9-.7 1 0 .6.2 1 .1 1.7 0 .2 1.4-.8 2-2.3.1-.2-.6-2.4-.7-2.6-.2-.4-.1.5-.2.7m-6.2 3.2c.5-.4-.1-.1-.9-1.3-.1-.1-.1 0-.3.1 0 .2 1.1 1.3 1.2 1.2m-26.8-1.1c-.1-.1-.8 0 .5 1.2.2.1.3.2.4 0s-.6-.3-.9-1.2m-1.7 16.7c.2-.3-.3 0-.5.4-.1 0 .1.1.5-.4M9.6 100c.2 0 .5.1.5-.2.8-3.8 4.2-9 0-2.2-.2.3-1.3 2.2-.9 2.3zm43.8-66.3q0-.15 0 0 .15 0 0 0 .15 0 0 0c.1.1-.1.1 0 0M22.3 50.6c-.2.1-2 5.3-7.8 11-1.6 1.6-1.7 1.8-1.8 2.1.1.3.6.3 1.1.3 5-.5 9-3.3 9-2.8-.1 3.9-4.3 8-7.3 10.5-.1.2 0 .3.3.4h.3c2.4-.5 3.2-.7 6.2-1.2h.1l.4-.3c.3-.4-.4-.1-.9-.1-6.7.9-6.5 1.9-4.6 0 3.3-3.3 5.1-5 5.8-9 .1-.4.2-1.4-.5-1-2.1 1-.9.4-3.2 1.4-3.7 1.5-6.2 1.7-6.2 1.5 0-.1 1.8-1.9 2.2-2.3 4.4-3.9 7.2-10.3 6.9-10.5m30.2 5.7c.6-.4.7-.8.8-1.4.1-.4.7 1.1-1.1 2-4.5 2.2-6.2-2.9-4.9-1.4 1 1.1 1.9 1.8 3.5 1.5.6-.2 1.2-.4 1.7-.7m-18.9 7.6c-.1-.2-.3-.4-.5-.6 0 .1-.1.3-.2.4l.6.6c0-.2.1-.3.1-.4m.5.6c.3.3 1.4 1.2 1.6 1.3l-.4.1-1.4-1.3zm36 6c-2.5-1.6-2.1-1.3-5.3-3-.7-.3-.9-.2-.8 0 .2.2.2.2 3.3 1.8 1.4.7 11.8 7.4 10.4 7.6-2 .4-3.1 1-6.3 2-1.8.6-2.1.7-4.2 1.6-7.5 3.2-10.1 7.4-14.2 12.2-1.3 1.5-2.3 3.4-2.5 5.4 1.8-4.2 1.4-3.2 5.7-8.5 4.6-5.6 8.9-8.2 16-10.4 2.8-.9 3.9-1.4 5.5-1.8 1.4-.3.1-1.6-.4-2-2.4-2-4.8-3.3-7.2-4.9m-28.2-.2c.5 1.6.6 3.6-.1 5.2-.2.6-1 2-1.6 2.1h-.1l-.1-.2c3-3.1 1.6-7.2 1.9-7.1m1.7 14.9c5.3 9.3 5.8 12.4 6.3 11.7.3-2.5-19-33.8-6.3-11.7m36-6.7c-.2.1-.2.3-.1.5-2.6.3-9.9 2.6-14.4 5.2-5.2 3.1-5.6 4.6-9 7.6-1.8 1.6-2.3 3.3-3.1 4.6-1.8 2.8-1.6 2.6-1.7 2.5v-.1c1.7-3.5.8-1.5 2.1-3.9 1.7-3.4 2.8-3.3 4.6-5.4 1.5-1.7 3.3-3.2 5-4.4 6.6-4.5 15.8-6.6 16.6-6.6m-19 .7q0-.15 0 0 0-.15 0 0c-.8.2-7.6 11.8-7.6 11.9-4.3 6.7-2.9 7.1-2.5 5.9.9-3.1 2.6-4.8 4.6-8.6.3-.7 5.1-8.6 5.5-9.2m22.5 1.7c1 .4 1.2.5 1.1.5h-.1zm1.1.5c.2 0 .7.2.8.3-.3 0-.6-.1-.8-.3M70.8 94.9c.2-.5 1.3-3.9.9-3.8-.2 0 0 0-2.3-.9-.6-.2 4.9-9.1 4.5-6.8-.2 1.2-.5 2.4-.9 3.7-.1.2-.4 1.6-.4 1.6.2.2 3.1.6 2.5 1.8-.9 1.6-3.5 6.3-4.9 7.1-.3.1.6-2.6.6-2.7m1.9-8.4c.4-1 1.1-3.5.3-2.2-1.1 1.8-2.4 3.6-3.1 5.5-.1.2.7.4 2 .8.9.3-.2 2.7-.5 3.5-2.6 6.1 1.5-1.4 2.6-2.9.9-1.1 1.2-1.2-1.3-2-.6-.3-.2-2.2 0-2.7m18.7-1.2c-.2-.1-.3-.1-.4-.1-.3.3-10.7 9.2-12.2 14.8 12.8 0 13.4.1 13.5-.2.1-.4 0-2.4-.9-4.2-4.3-9.6-6.4-3.6 0-10.2zM91 99.4c-.1-.1-.6-4.6-2.4-7.6-.4-.7 2.4 2.4 3.2 6.8.1.4-.1.5-.5.5-.1.1-.1.3-.3.3"/>
  <path fill="#9b559a" d="M33 63.7c.9 1 .5.6 2.2 2.2-.6.2-1.1.6-1.6.9l-1.2-2.9zM67.7 69l2.7-1.9c-.4-.3-3.8-2.1-3.9-2-.8.8-1.7 1.5-2.6 2.1l.1.1c.2-.2.8.3 3.7 1.7m-42.1 3.2c-2.8-.8-1.8-.2-3-.4.1-.1 6.4-5.6 7.6-6.4.1-.1.2.2 1.7 2.3v.1c-1.9 1.3-1.4 1.3-3.7 2.6-.8.3-1.6.8-2.6 1.8m55.3 7.5-1.3-.7c-2.6.3-9.9 2.6-14.4 5.2-5.2 3.1-5.6 4.6-9 7.6-1.9 1.7-2.1 3.1-3.6 5.2-.9 1.3-1.3 2.2-1.3 1.8l.2-.3c-1.4.2-.7.4-.8-1.2-.7 1.6-.3 1.3-1 1.4-.3.1-.5-.1-.7-.4-.3.3.1.5-.2.6l.2.2h-.1c-4.1-4.2-2.1-6.6-15.2-15.9-1.6-1.1-5.4-2.5-5.5-2.5-.7 0-1.4.1-2 .2-.5.1-3.3.2-9.3 1.7.5.1 1.1.3 1.8.4 1.5.2 1.8.8 5.6 2.1 2.2.8 4.4 1.5 6.4 2.7 6.1 3.6 10.5 6.3 14.2 12.2h10.6c5-7.5 9.1-10.9 9.7-11.5 4.2-4.6 10.1-7.5 15.7-8.8"/>
  <path fill="#ba9732" d="M38 19.4c2.4 1.9 3.9 2.3 6.9 4.4-.1.5-.4.9-.7 1.2l.5-.9c-.1-.1-.1 0-.9 1.2-5.2-3.2-4.7-2.4-6-4.1-.1-.8-.2-1.7-.4-1.4v.1c-.1 0 .1-.2-.2-.9 0-.1.1-.1.1-.1.3.3.5.4.7.5m-7 10.3c1.3 6.7-.6 7.3-.2 8 .2.4 1.2-.9 1.6-1.3.1.1.1.3 0 .3-1.7 1.9-1.7 1.9-1.8 1.9s-.4-.1-.4-.2c0-2.4.2-2.1 0-4.5 0-.4-2.3 4.4-2.4 5.7 0 .1-.6 4.9-.3 6.9-1 1.6-.6 1.4-.9-1v-.7c.6-3.7-.5-5.6 4-14.3.2-.2.4-.5.4-.8m29.9 9.2c.6-.2.8-.3.9-.3s.2.1.2 0c-2.8-4.2-7-9-6.5-8.1q.75 1.35 1.2 3c1.5 1.2 2.2 2.4 4.2 5.4m-4.2-.6c0 .8-.6.8-.6 1.1 0 .1 0 .2-.2.2-.3.1-.8-2-2.6-4.7.5-.7.6-1.1.7-1 .1 0 2.7 4.4 2.7 4.4m8.2-3.2c0 .1 0 0-.2-.1.1.4.2.9.2 1.2.6 2 .5 2.1.6 2.1 1.5 0 1.9 1.6-.6-3.2m3 7.4c.3-.1.7 1.5-.5 1.4.3-.5.4-.9.5-1.4m-27.3.2q0 .15 0 0c0 .6-.1 1.1-.4 1.6 1.4.4 1.8-1.4.4-1.6m28.7 4.4c.4 2.9.6 8.1.3 10.4 0 .3.3.4.4.3 2.9-4.5 3.5-9.7 3.5-9.2.5 4.2.1 4.3-1 6.9-2.2 5.4-6.7 10-9 11.4 1.5-2.3 6.4-6.6 3.3-18.4.1-.1.1-.2.1-.3 2.2-.8 1.7-.8 2.4-1.1M66.2 49l.1-.6-.4.1c.2.4.2.7.3.5M30 54.9l-.6 1.5c0 .1 0 .1-.1.1-2.2-6.9-2-6.2-1.8-6.2 1.8 0 .4-.2 2.5 4.6m5.1 8.3-1 1.2c.4.4 1.8 1.4 2 1.6.1.1 6.5 4.3 10 5.6-.2-.2-.5-.5-.8-.6-3.4-2.3-7.5-5.2-10.2-7.8m20.7.4c-.4.4-3.4 2.5-4.4 2.3 2.7-1 3.6-2 4.4-2.3m-12.3 0c.1.9 3.1 2.8 6.2 2.3-1.8-.5-2.7 0-6.2-2.3M42 70.2c.9.5 1.8 1 2.9 1.5 2.5 1.1 6.7 1.4 9.6.2 1.2-.5 2.6-.9 3.3-1.2.3-.1.4-.2.4-.1-.3 3.6.1 4.7 1.5 7.1.3.5.7.9 1.3 1.4 0 .1-.1.2-.2.2-.2-1-7.2 11.3-7.7 11.9-1.1 1.8-2.1 3.2-3 5.9L50 97c0-.3-.1-.4-.5-1.3.1-.6.2-.6.7-2.4.8-2.7 3.2-6.8 3.8-8 2.6-5.1 2.5-2.7 2.2-6.6-.1-1.1-.6-3.7-.7-3.7s-.5.3-2.4.8c-2.6.8-7.2-.6-9.2-2.3-.4 2.5-1.5 4.5-3.1 6l-.8-1.3c-.1-.4-.1-.6.1-.8.6.9 3.2-2.5 1.9-7.1-.1 0-.1-.1 0-.1m12.9 1c-1.1.5-2.1.9-3.3 1z"/>
  <path fill="#3a97b1" d="m46.2 24.8-1.3-1c-.3 1-.8 1.2-.9 1.6l1.2.8c.9-1 .9-1 .9-1.2.1 0 .1-.1.1-.2M28 49.2c0-.7-.2-1.3-.4-1.9-.7 1.1-.7 1-.7 1.1.2.9.3 1.7.3 1.6zm5.5 12.2 1.2 1.3c-.8.9-.6.7-1 1.2-.2-.3-.1-.1-1.2-1.5-.2-.1 1.1-1 1-1m3.4 5.7c-.4-.3-.8-.5-1.1-.8-.9.5-1.9.6-1.9 1 .6 1.2.9 1.6 2.8 5.3.1.3-.1 1.1-1.4-.5-2.4-2.9-2.9-4-3.1-4.1-.1 0-1.3.9-1.5 1-2.3 1.8-2.7 1.6-4.6 3.1 4.3 1.2 5.3 1.9 6.7 2.6 4.2 2.1 7.7 9.6 9 11.2 5.2 6.6 5 6.6 7.6 12.3.1.2-.2-.2-.4-.4-.1 1.1 1.3 1.1 1.4.5.2-1.3.4-2.1.7-2.7 1.1-2.4 6.4-8.4 7.7-9.6 5.2-8.9 2.5-5.2 5.6-10.9 1-1.9.5-3.2 2.9-5.8-2.3-1.2-3.6-1.7-3.3-2 0 0 0-.1-.1-.1-4.4 2.9-5.7 2.9-5.6 3.2.2 2.4 0 3.8 1.1 5.9 1.2 2.3 2.1 2.3 1.4 2.6 0 .1-.1.2-.2.2-2 3-6.7 11.3-7 11.7-1.3 1.9-2.6 3.9-3.2 6.1-.2.7-.6.5-.5.4l.1-.3-.1-.1c-.5.7-1-2.5-6.3-11.7-1.8-3.1-5.7-9.9-3.7-7-.4-1.5 2.7-1.6 1.9-7.8v-.1h.1v-.1c-2-1.2-3.7-2.2-5-3.1"/>
  <path fill="#a13125" d="M55.8 63.6c-.9.4-1.6 1.2-4.4 2.3h-1.7q-.45-.15-1.5-.3c-3-.4-6.1-2.8-5.3-3 .1 0 4.5-.9 4.6-1 1.6-.2 1.5.7 3.8.2 1.1-.2 1.4 0 2 0 1.7.2 2 .2 2.8.6.4.2.5.1.5.2.2.2-.8 1-.8 1"/>
  <path fill="#754177" d="M22.1 49.6c2 4.9 1.6 3.3 3.8 8.3 2 4.5 4.2 7 4 7.2-.9.6-6.9 5.7-7 5.8 0 0 0-.1-.1-.1.3-.4-.5-.1-.9-.1-6.7.9-6.5 1.9-4.6 0 3.3-3.3 5.1-5 5.8-9 .5-3-2.8 1.4-9.6 1.9h-.4c0-.1 1.5-1.6 2.2-2.3 4.1-3.9 7.2-10.4 6.8-10.6.3-.2.2-.2 0-1.1m54.5 4.8c.1.1.1.2.1.4-.3-.9-.1 4.7 6.3 13-1.9-.3-3.6-1.3-5.2-2.2-2-1.3-2.4-1.6-2.7-1.1-.9 1.4 2.3 6.9 2 6.7-3.2-2.2-4-2.5-4.3-3.1-.1-.2 0-.2-3-1.9-.8-.5-2.9-1.1-2.9-1.3-.1-.5 4.1-3 6.7-10.4.2-.5.1 2.3-2 5.7-.1.2.2.5.4.2 2.6-3.2 3.7-4.8 4.6-6m-44.3 9.1.3-.2c-1-1.2-1.8-2.9-.3.2"/>
  <path fill="#ba1d92" d="M45.4 26.4c2.9 2.3 3 2.9 3.5 3 .4.1 4 4.8 4.4 5.3-3.1 4.3-2.1 2.6-5.4 7.9-.2.3 0 .6.3.5 1.3-.3 2.6-.6 3.8-1.1.2-.1-12.8 12.6-13.5 13.3-.4.4-4.8 5.3-5.3 5.5-.8-.9-2.5-4.6-2.9-5.4 2.5-5.5 3.1-5.9 2.3-5.9-.9 0-.5.1-4.6.4-.3 0 1.6-1 2.6-3 6.8 3.5 8.7 2.3 13.6.2 1-.6 1.7-.7 1.5-.8.4-.2-1.6-4.3-3.8-6.3-3.2-2.8-5.2-1.6-5.4-1.8.9-1.7 5.3-6.7 8.9-11.8"/>
  <path fill="#dd8dcf" d="M76.3 71.1c3 2.2 3.2 2.4 5.4 4.3v.2c.2.2 1.2 1.5 1 1.6-4.9-2.8-8.9-7.4-8.5-7.1 2.2 1.1 1.8 1.1 2.1 1M88 83.3l1 .5c0 .1-.4.2-1.6 1-1.2-.7-1.5-.7-2-1.1-3.7-3-4.2-3-4.1-3.1.3-.3 6.4 2.6 6.7 2.7m2 2.8c.4-.3.7-.6 1-1-1.5-1-.5-.7-2.1.5.4.2.7.4 1.1.5"/>
  <path fill="#b0782a" d="M41.2 44.2c-.2.2-.6.3-1 .2-1.9 3.4-7 2.5-6.6-1.7.1-.9.4-2.5 1-3.2.3-.3-1.6.9-1.7 1.1-.2.7-.4 1.3-.5 2-1 5.3 8.3 7.5 9.6.6-1.3-1.8-1.4-1.9-1.4-1.8V43c.8-.2 1.1.6.6 1.2m24.3 3.3-.6-1.3c-2.1.9-4.9-.2-5.1-3.9-.1-1.6.6-2.4.3-2.2-1.1.7-2 1.6-2 1.7-.2.5.3 2.1.5 2.7.6 2.4 3.9 4.3 6.9 3"/>
  <path fill="#fff629" d="M72.2 88.4c-.3.6.3.8 1.2 1 .6.2 1.4.6 1.3.8-.3.6-.9 1.3-1.3 1.9q-1.2 2.25-2.7 4.2c-.6.9.9-2.7 1.2-3.5.1-.3.3-.8.4-1.2.1-.2-.1-.3-.1-.4 0-1-.6-.6-2.4-1.4-.1-.3 2.9-5.4 3.4-5.9.3-.3-.5 2.1-.6 2.5-.1.7-.1 1.4-.4 2"/>
  <path fill="#5f5f5e" d="m28.6 10.9-.8.6zm39.3 31.6c-1.3-.6-1.7 1.2-.6 1.4.2.1.6-1 .6-1.4m-27.3.3q0 .75-.3 1.5c-.8-.5-.4-1.5.3-1.5m20.7 2.5c.4.3.3.4.6.1.2-.2-.5-.1-1.1-1.1-.1-.2-.4.2-.3.3.3.3.6.5.8.7m-26.4-.8c.4.9 1 1 .9 1.2-.3.5-.9-.4-1.2-.9-.1-.1 0-.2.1-.3s.1-.1.2 0M18.2 69.2l-2.6 2.5c.6-.6 2.1-1.9 2.6-2.5m70.5 22.6c-.4-.7 2.4 2.4 3.2 6.8.1.6-.5.4-.6.6-.1.1-.1.2-.3.2-.1-.1-.6-4.6-2.3-7.6m-78.5 4.5c.7-1 1.3-2 1.9-3.1zc-.1.1 0 .1 0 0m-.3 3.7c-.2.1-.5-.1-.7 0-.7.2 1-2.6 1.3-3.1 3.5-6 .2-.1-.4 2.9 0 .1-.1.1-.2.2m.2-3.6L9 98.1c.1-.1 1.1-1.4 1.1-1.7"/>
  <path fill="#b5b7bd" d="m63.3 43-1.2-2c.4-.2 1.9 1.3 1.2 2m-17.8 3.3c-.4-.2-.4-.4-.9-1.4-.3-.5-2-3.8-2-3.3q0 1.05-.3 2.1c.2.4.1.2.9 1.7.4.8.1 1.1.8 1.7.4-.3.9-.5 1.4-.7.1 0 .2-.1.1-.1m23.8.8c-.7.3-.2.3-2.4 1-.1-1.2-.2-.9.2-1.2 1.7-1.4 1.8-2.2 1.8-2zm-3 1.3.1-.1c-.3-.9-.1-.8-.8-.4.2.5.3.5.2.6z"/>
  <path fill="#2a2b2a" d="M32.8 61.3c.4-.4.5-.3.1.1-.1.2-.5.3-.1-.1m2.3 1.9.3-.4c0-.1-.1-.1-.2 0-1.4 1.8-1.6 1.2-1.2.8h-.1c-.4.4-.5.4-.5.8l.2.2.3-.1c.2 0 1.2-1.3 1.2-1.3m-2.1 0 .1.2c0 .1-.1.3-.2.4-.5.2-.6.3-.8.2-.2-.4.6-.9.9-.8m3 2.8c-.1-.1-.2-.2-.4-.3-.6.2-1.2.5-2.1 1.1q0 .6.3.6c0-.5 1-.6 1.9-1 0-.1.3-.4.3-.4m43.6 12.5c1.7 1 11.5 5.4 12 6.5l-.2.3c-.2-.1-.3-.1-.4-.1-.8-.5-.9-.7-1-.6-1.6 2-9.4 5.5-12.7 15.4H77c2.2-9.2 13.5-15.4 13-15.7-.7-.4-.8-.5-.9-.3-2 2.2-8.9 4.9-12.8 16H76c2-9.3 13.1-16.3 13.1-16.1.1-.1-.2-.2-1-.6-1.7-1-3.8-1.8-3.9-1.9.4.1-.5-.2-4.5-2.4-.3-.2-.3-.3-.1-.5M55.4 63c-4 2-11.2-.5-11.2.2 0 .3.4-.1 2.3.4.8.2 1.5.3 3 .3s1.9.2 2.7.1c.4 0 1.1-.2 1.7-.3 2.2-.6 1.6-.8 1.5-.7"/>
  <path fill="#835e31" d="M42 43c-1.4-1.9-1.4-1.9-1.4-1.8-.2-1.2-.9-2.1-.7-2 1 .6 1.2.9 1.7 1.2.3.2.6.4.6.8-.1.6-.1 1.2-.2 1.8m-1.4-1.7s0-.1 0 0c-.1-.1-.1 0 0 0m26.8 2.6c1.3.1.9-1.5.6-1.4v-.1c.1-.2-.1-2.4.8 1.8.1.5-2 2.7-2 2.4 0-.7-.2-1.6-.1-1.7.3-.3.5-.6.7-1m-2.6 2.2.6 1.3c.2-.1.6-.3.6-.4-.1-.3-.4-1.2-.6-1.2z"/>
  <path fill="#8a2078" d="M46.2 24.8c-.1.1-.1.2-.1.3.2 0-.4.8-.8 1.3 3.3 2.6 2.9 2.9 3.5 3 .4.1 4.1 4.8 4.4 5.3.5-.7.8-.9.7-1s-2.4-3.5-3.3-4.5c-1.4-1.7-2.5-2.9-4.4-4.4m7.2 8.9q0-.15 0 0 0-.15 0 0c.1 0-.1.1 0 0M30.2 55.4l-.4.9c-.1.3-.4.3-.4.2v-.1.1s0 .1-.1.1c0 .2.1.3.2.4.2.1 1.4 3.6 1.6 3.8 1.2 1.5.7 1.5 2 .1-.8-1.1-2.5-4.8-2.9-5.5"/>
</svg>
